<?xml version="1.0" encoding="UTF-8"?>
<svg width="276px" height="287px" viewBox="0 0 276 287" version="1.1" xmlns="http://www.w3.org/2000/svg" xmlns:xlink="http://www.w3.org/1999/xlink">
    <!-- Generator: Sketch 43.2 (39069) - http://www.bohemiancoding.com/sketch -->
    <title>Untitled 2</title>
    <desc>Created with Sketch.</desc>
    <defs></defs>
    <g id="Page-1" stroke="none" stroke-width="1" fill="none" fill-rule="evenodd">
        <path d="M75.6896086,39.6616237 C74.9010818,38.8740962 73.6248475,38.8740962 72.8363206,39.6616237 L48.8697006,63.6282437 C48.0821731,64.4167706 48.0821731,65.6930049 48.8697006,66.4815318 C49.6572281,67.2690592 50.9344617,67.2690592 51.7229886,66.4815318 L75.6896086,42.5139123 C76.4771361,41.7263848 76.4771361,40.4491512 75.6896086,39.6616237 M49.7241879,44.4937244 L53.7028007,40.5151116 C54.4903282,39.7275841 54.4903282,38.4503505 53.7028007,37.662823 C52.9142738,36.8752955 51.6380396,36.8752955 50.8505121,37.662823 L46.8708999,41.6414358 C46.0833724,42.4299627 46.0833724,43.706197 46.8708999,44.4937244 C47.6584273,45.2822513 48.935661,45.2822513 49.7241879,44.4937244 M50.7235882,55.4871284 L64.6962047,41.514512 C65.4837322,40.7269845 65.4837322,39.4497508 64.6962047,38.6622233 C63.9076778,37.8746959 62.6314435,37.8746959 61.8429166,38.6622233 L47.8703002,52.6348398 C47.0827727,53.4233667 47.0827727,54.6996009 47.8703002,55.4871284 C48.6578277,56.2756553 49.9350614,56.2756553 50.7235882,55.4871284" id="25" fill="rgba(0,0,0,0.1)" transform="translate(61.280254, 52.072177) rotate(-102.000000) translate(-61.280254, -52.072177) "></path>
        <path d="M252.64621,27.6482867 C246.01921,27.6482867 240.64621,29.4392867 240.64621,31.6482867 C240.64621,33.8572867 246.01921,35.6482867 252.64621,35.6482867 C259.27321,35.6482867 264.64621,33.8572867 264.64621,31.6482867 C264.64621,29.4392867 259.27321,27.6482867 252.64621,27.6482867 L252.64621,27.6482867 Z M252.64621,12.6482867 L243.88121,25.7952867 C246.39921,25.0722867 249.40821,24.6482867 252.64621,24.6482867 C255.88421,24.6482867 258.89321,25.0722867 261.41121,25.7952867 L252.64621,12.6482867 Z M268.64621,31.6482867 C268.64621,35.5142867 261.48221,38.6482867 252.64621,38.6482867 C243.81021,38.6482867 236.64621,35.5142867 236.64621,31.6482867 C236.64621,30.4242867 237.54121,29.4322867 237.42421,29.5902867 L252.64621,6.64828671 L267.91821,29.5562867 C267.92621,29.5672867 267.93221,29.5782867 267.93921,29.5882867 C267.93921,29.5882867 268.64621,30.4022867 268.64621,31.6482867 L268.64621,31.6482867 Z" id="9" fill="rgba(0,0,0,0.1)" transform="translate(252.646210, 22.648287) rotate(-313.000000) translate(-252.646210, -22.648287) "></path>
        <path d="M190.580986,272.574516 C190.619651,272.52865 190.635118,272.472274 190.678616,272.430231 C191.430659,271.685876 192.651519,271.685876 193.404528,272.430231 L198.832186,277.795512 L204.113883,272.574516 C204.152548,272.52865 204.168014,272.472274 204.211513,272.430231 C204.594301,272.051843 205.096951,271.867426 205.598635,271.874115 C206.100319,271.867426 206.603936,272.051843 206.986723,272.430231 C207.030222,272.472274 207.045688,272.52865 207.083387,272.574516 L213.753172,279.166693 C214.505214,279.911048 214.505214,281.117878 213.753172,281.862233 C213.000163,282.606588 211.779302,282.606588 211.026293,281.862233 L205.598635,276.495996 L200.317905,281.716037 C200.27924,281.761903 200.263774,281.819234 200.220275,281.862233 C199.837487,282.240621 199.33387,282.424082 198.832186,282.417394 C198.330503,282.424082 197.827852,282.240621 197.444098,281.862233 C197.400599,281.819234 197.385133,281.761903 197.346468,281.716037 L192.065738,276.495996 L186.608114,281.891854 C185.855105,282.636209 184.634244,282.636209 183.881235,281.891854 C183.129193,281.147499 183.129193,279.940669 183.881235,279.19727 L190.580986,272.574516 Z M211.026293,269.440389 L205.598635,264.074152 L200.317905,269.294193 C200.27924,269.340058 200.263774,269.39739 200.220275,269.440389 C199.837487,269.818777 199.33387,270.002238 198.832186,269.996505 C198.330503,270.002238 197.827852,269.818777 197.444098,269.440389 C197.400599,269.39739 197.385133,269.340058 197.346468,269.294193 L192.065738,264.074152 L186.608114,269.47001 C185.855105,270.214365 184.634244,270.214365 183.881235,269.47001 C183.129193,268.725655 183.129193,267.518825 183.881235,266.775425 L190.580986,260.152671 C190.619651,260.106806 190.635118,260.05043 190.678616,260.008387 C191.430659,259.264032 192.651519,259.264032 193.404528,260.008387 L198.832186,265.372713 L204.113883,260.152671 C204.152548,260.106806 204.168014,260.05043 204.211513,260.008387 C204.594301,259.629998 205.096951,259.445582 205.598635,259.45227 C206.100319,259.445582 206.603936,259.629998 206.986723,260.008387 C207.030222,260.05043 207.045688,260.106806 207.083387,260.152671 L213.753172,266.744849 C214.505214,267.489204 214.505214,268.696034 213.753172,269.440389 C213.000163,270.184744 211.779302,270.184744 211.026293,269.440389 L211.026293,269.440389 Z" id="4" fill="rgba(0,0,0,0.1)" transform="translate(198.817204, 270.950121) rotate(-345.000000) translate(-198.817204, -270.950121) "></path>
        <path d="M190.255423,99.0519226 C190.294088,99.0060573 190.309555,98.9496813 190.353053,98.9076381 C191.105096,98.163283 192.325956,98.163283 193.078965,98.9076381 L198.506624,104.272919 L203.78832,99.0519226 C203.826985,99.0060573 203.842451,98.9496813 203.88595,98.9076381 C204.268738,98.5292496 204.771388,98.344833 205.273072,98.3515217 C205.774756,98.344833 206.278373,98.5292496 206.66116,98.9076381 C206.704659,98.9496813 206.720125,99.0060573 206.757824,99.0519226 L213.427609,105.6441 C214.179651,106.388455 214.179651,107.595285 213.427609,108.33964 C212.6746,109.083995 211.453739,109.083995 210.70073,108.33964 L205.273072,102.973403 L199.992342,108.193444 C199.953677,108.23931 199.938211,108.296641 199.894712,108.33964 C199.511924,108.718028 199.008307,108.90149 198.506624,108.894801 C198.00494,108.90149 197.502289,108.718028 197.118535,108.33964 C197.075036,108.296641 197.05957,108.23931 197.020905,108.193444 L191.740175,102.973403 L186.282551,108.369261 C185.529542,109.113616 184.308682,109.113616 183.555672,108.369261 C182.80363,107.624906 182.80363,106.418076 183.555672,105.674677 L190.255423,99.0519226 Z M210.70073,95.9177958 L205.273072,90.5515591 L199.992342,95.7716002 C199.953677,95.8174655 199.938211,95.8747971 199.894712,95.9177958 C199.511924,96.2961843 199.008307,96.4796454 198.506624,96.4739122 C198.00494,96.4796454 197.502289,96.2961843 197.118535,95.9177958 C197.075036,95.8747971 197.05957,95.8174655 197.020905,95.7716002 L191.740175,90.5515591 L186.282551,95.9474171 C185.529542,96.6917722 184.308682,96.6917722 183.555672,95.9474171 C182.80363,95.203062 182.80363,93.996232 183.555672,93.2528324 L190.255423,86.6300785 C190.294088,86.5842132 190.309555,86.5278371 190.353053,86.485794 C191.105096,85.7414388 192.325956,85.7414388 193.078965,86.485794 L198.506624,91.8501196 L203.78832,86.6300785 C203.826985,86.5842132 203.842451,86.5278371 203.88595,86.485794 C204.268738,86.1074055 204.771388,85.9229889 205.273072,85.9296775 C205.774756,85.9229889 206.278373,86.1074055 206.66116,86.485794 C206.704659,86.5278371 206.720125,86.5842132 206.757824,86.6300785 L213.427609,93.2222556 C214.179651,93.9666107 214.179651,95.1734407 213.427609,95.9177958 C212.6746,96.6621509 211.453739,96.6621509 210.70073,95.9177958 L210.70073,95.9177958 Z" id="4" fill="rgba(0,0,0,0.1)" transform="translate(198.491641, 97.427528) rotate(-152.000000) translate(-198.491641, -97.427528) "></path>
        <path d="M108.94099,56.0480733 C108.979655,56.002208 108.995122,55.945832 109.03862,55.9037888 C109.790663,55.1594337 111.011523,55.1594337 111.764532,55.9037888 L117.19219,61.2690699 L122.473887,56.0480733 C122.512552,56.002208 122.528018,55.945832 122.571517,55.9037888 C122.954305,55.5254003 123.456955,55.3409837 123.958639,55.3476724 C124.460323,55.3409837 124.96394,55.5254003 125.346727,55.9037888 C125.390226,55.945832 125.405692,56.002208 125.443391,56.0480733 L132.113176,62.6402504 C132.865218,63.3846056 132.865218,64.5914355 132.113176,65.3357906 C131.360167,66.0801457 130.139306,66.0801457 129.386297,65.3357906 L123.958639,59.9695539 L118.677909,65.1895951 C118.639244,65.2354603 118.623778,65.2927919 118.580279,65.3357906 C118.197491,65.7141791 117.693874,65.8976402 117.19219,65.8909515 C116.690507,65.8976402 116.187856,65.7141791 115.804102,65.3357906 C115.760603,65.2927919 115.745137,65.2354603 115.706472,65.1895951 L110.425742,59.9695539 L104.968118,65.3654119 C104.215109,66.1097671 102.994248,66.1097671 102.241239,65.3654119 C101.489197,64.6210568 101.489197,63.4142269 102.241239,62.6708273 L108.94099,56.0480733 Z M129.386297,52.9139465 L123.958639,47.5477098 L118.677909,52.7677509 C118.639244,52.8136162 118.623778,52.8709478 118.580279,52.9139465 C118.197491,53.2923349 117.693874,53.475796 117.19219,53.4700629 C116.690507,53.475796 116.187856,53.2923349 115.804102,52.9139465 C115.760603,52.8709478 115.745137,52.8136162 115.706472,52.7677509 L110.425742,47.5477098 L104.968118,52.9435678 C104.215109,53.6879229 102.994248,53.6879229 102.241239,52.9435678 C101.489197,52.1992126 101.489197,50.9923827 102.241239,50.2489831 L108.94099,43.6262291 C108.979655,43.5803638 108.995122,43.5239878 109.03862,43.4819446 C109.790663,42.7375895 111.011523,42.7375895 111.764532,43.4819446 L117.19219,48.8462702 L122.473887,43.6262291 C122.512552,43.5803638 122.528018,43.5239878 122.571517,43.4819446 C122.954305,43.1035561 123.456955,42.9191395 123.958639,42.9258282 C124.460323,42.9191395 124.96394,43.1035561 125.346727,43.4819446 C125.390226,43.5239878 125.405692,43.5803638 125.443391,43.6262291 L132.113176,50.2184063 C132.865218,50.9627614 132.865218,52.1695913 132.113176,52.9139465 C131.360167,53.6583016 130.139306,53.6583016 129.386297,52.9139465 L129.386297,52.9139465 Z" id="4" fill="rgba(0,0,0,0.1)" transform="translate(117.177208, 54.423678) rotate(-125.000000) translate(-117.177208, -54.423678) "></path>
        <path d="M11.4016414,263.765204 C11.4403068,263.719338 11.455773,263.662962 11.4992716,263.620919 C12.251314,262.876564 13.4721746,262.876564 14.2251836,263.620919 L19.6528419,268.9862 L24.9345382,263.765204 C24.9732036,263.719338 24.9886697,263.662962 25.0321683,263.620919 C25.414956,263.242531 25.9176064,263.058114 26.4192903,263.064803 C26.9209741,263.058114 27.4245912,263.242531 27.8073788,263.620919 C27.8508774,263.662962 27.8663436,263.719338 27.9040424,263.765204 L34.5738272,270.357381 C35.3258696,271.101736 35.3258696,272.308566 34.5738272,273.052921 C33.8208182,273.797276 32.5999576,273.797276 31.8469485,273.052921 L26.4192903,267.686684 L21.1385606,272.906725 C21.0998952,272.952591 21.084429,273.009922 21.0409304,273.052921 C20.6581428,273.431309 20.1545257,273.61477 19.6528419,273.608082 C19.1511581,273.61477 18.6485076,273.431309 18.2647533,273.052921 C18.2212547,273.009922 18.2057886,272.952591 18.1671231,272.906725 L12.8863935,267.686684 L7.42876953,273.082542 C6.67576049,273.826897 5.45489987,273.826897 4.70189083,273.082542 C3.94984842,272.338187 3.94984842,271.131357 4.70189083,270.387958 L11.4016414,263.765204 Z M31.8469485,260.631077 L26.4192903,255.26484 L21.1385606,260.484881 C21.0998952,260.530746 21.084429,260.588078 21.0409304,260.631077 C20.6581428,261.009465 20.1545257,261.192926 19.6528419,261.187193 C19.1511581,261.192926 18.6485076,261.009465 18.2647533,260.631077 C18.2212547,260.588078 18.2057886,260.530746 18.1671231,260.484881 L12.8863935,255.26484 L7.42876953,260.660698 C6.67576049,261.405053 5.45489987,261.405053 4.70189083,260.660698 C3.94984842,259.916343 3.94984842,258.709513 4.70189083,257.966113 L11.4016414,251.343359 C11.4403068,251.297494 11.455773,251.241118 11.4992716,251.199075 C12.251314,250.45472 13.4721746,250.45472 14.2251836,251.199075 L19.6528419,256.5634 L24.9345382,251.343359 C24.9732036,251.297494 24.9886697,251.241118 25.0321683,251.199075 C25.414956,250.820686 25.9176064,250.63627 26.4192903,250.642958 C26.9209741,250.63627 27.4245912,250.820686 27.8073788,251.199075 C27.8508774,251.241118 27.8663436,251.297494 27.9040424,251.343359 L34.5738272,257.935537 C35.3258696,258.679892 35.3258696,259.886722 34.5738272,260.631077 C33.8208182,261.375432 32.5999576,261.375432 31.8469485,260.631077 L31.8469485,260.631077 Z" id="4" fill="rgba(0,0,0,0.1)" transform="translate(19.637859, 262.140809) rotate(-223.000000) translate(-19.637859, -262.140809) "></path>
        <path d="M53.3639582,126.268728 C53.4026236,126.222863 53.4180898,126.166487 53.4615884,126.124444 C54.2136308,125.380089 55.4344914,125.380089 56.1875004,126.124444 L61.6151587,131.489725 L66.896855,126.268728 C66.9355204,126.222863 66.9509865,126.166487 66.9944851,126.124444 C67.3772728,125.746055 67.8799232,125.561639 68.3816071,125.568327 C68.8832909,125.561639 69.386908,125.746055 69.7696956,126.124444 C69.8131942,126.166487 69.8286604,126.222863 69.8663592,126.268728 L76.536144,132.860905 C77.2881864,133.605261 77.2881864,134.81209 76.536144,135.556446 C75.783135,136.300801 74.5622744,136.300801 73.8092653,135.556446 L68.3816071,130.190209 L63.1008774,135.41025 C63.062212,135.456115 63.0467458,135.513447 63.0032472,135.556446 C62.6204596,135.934834 62.1168425,136.118295 61.6151587,136.111606 C61.1134749,136.118295 60.6108244,135.934834 60.2270701,135.556446 C60.1835715,135.513447 60.1681054,135.456115 60.1294399,135.41025 L54.8487103,130.190209 L49.3910863,135.586067 C48.6380773,136.330422 47.4172167,136.330422 46.6642076,135.586067 C45.9121652,134.841712 45.9121652,133.634882 46.6642076,132.891482 L53.3639582,126.268728 Z M73.8092653,123.134601 L68.3816071,117.768365 L63.1008774,122.988406 C63.062212,123.034271 63.0467458,123.091603 63.0032472,123.134601 C62.6204596,123.51299 62.1168425,123.696451 61.6151587,123.690718 C61.1134749,123.696451 60.6108244,123.51299 60.2270701,123.134601 C60.1835715,123.091603 60.1681054,123.034271 60.1294399,122.988406 L54.8487103,117.768365 L49.3910863,123.164223 C48.6380773,123.908578 47.4172167,123.908578 46.6642076,123.164223 C45.9121652,122.419868 45.9121652,121.213038 46.6642076,120.469638 L53.3639582,113.846884 C53.4026236,113.801019 53.4180898,113.744643 53.4615884,113.7026 C54.2136308,112.958244 55.4344914,112.958244 56.1875004,113.7026 L61.6151587,119.066925 L66.896855,113.846884 C66.9355204,113.801019 66.9509865,113.744643 66.9944851,113.7026 C67.3772728,113.324211 67.8799232,113.139795 68.3816071,113.146483 C68.8832909,113.139795 69.386908,113.324211 69.7696956,113.7026 C69.8131942,113.744643 69.8286604,113.801019 69.8663592,113.846884 L76.536144,120.439061 C77.2881864,121.183416 77.2881864,122.390246 76.536144,123.134601 C75.783135,123.878957 74.5622744,123.878957 73.8092653,123.134601 L73.8092653,123.134601 Z" id="4" fill="rgba(0,0,0,0.1)" transform="translate(61.600176, 124.644333) rotate(-264.000000) translate(-61.600176, -124.644333) "></path>
        <path d="M171.62147,222.593425 C164.99447,222.593425 159.62147,217.221425 159.62147,210.593425 C159.62147,203.965425 164.99447,198.593425 171.62147,198.593425 C178.24847,198.593425 183.62147,203.965425 183.62147,210.593425 C183.62147,217.221425 178.24847,222.593425 171.62147,222.593425 M171.62147,194.593425 C162.78547,194.593425 155.62147,201.756425 155.62147,210.593425 C155.62147,219.429425 162.78547,226.593425 171.62147,226.593425 C180.45747,226.593425 187.62147,219.429425 187.62147,210.593425 C187.62147,201.756425 180.45747,194.593425 171.62147,194.593425" id="3" fill="rgba(0,0,0,0.1)" transform="translate(171.621470, 210.593425) rotate(-83.000000) translate(-171.621470, -210.593425) "></path>
        <path d="M121.802357,178.880006 C115.175357,178.880006 109.802357,173.508006 109.802357,166.880006 C109.802357,160.252006 115.175357,154.880006 121.802357,154.880006 C128.429357,154.880006 133.802357,160.252006 133.802357,166.880006 C133.802357,173.508006 128.429357,178.880006 121.802357,178.880006 M121.802357,150.880006 C112.966357,150.880006 105.802357,158.043006 105.802357,166.880006 C105.802357,175.716006 112.966357,182.880006 121.802357,182.880006 C130.638357,182.880006 137.802357,175.716006 137.802357,166.880006 C137.802357,158.043006 130.638357,150.880006 121.802357,150.880006" id="3" fill="rgba(0,0,0,0.1)" transform="translate(121.802357, 166.880006) rotate(-81.000000) translate(-121.802357, -166.880006) "></path>
    </g>
</svg>