<svg width="52" height="52" viewBox="0 0 52 52" fill="none" xmlns="http://www.w3.org/2000/svg">
<g id="Group 33832">
<rect id="Rectangle 6082" width="52" height="52" rx="26" fill="#2FC662"/>
<g id="&#231;&#188;&#150;&#231;&#187;&#132; 7 (2) 2" clip-path="url(#clip0_116_477)">
<g id="&#233;&#161;&#181;&#233;&#157;&#162;-1">
<g id="&#231;&#148;&#187;&#230;&#157;&#191;&#229;&#164;&#135;&#228;&#187;&#189;">
<g id="&#231;&#188;&#150;&#231;&#187;&#132;-7">
<path id="&#231;&#159;&#169;&#229;&#189;&#162;&#229;&#164;&#135;&#228;&#187;&#189;-9" d="M25.8863 13C29.687 13 33.4884 13.2317 37.2904 13.6951L37.9241 13.7745C41.1787 14.1932 43.7985 16.6459 44.4254 19.8611C44.8085 21.8255 45 23.8502 45 25.9351C45 27.9362 44.8235 29.9375 44.4706 31.9388L44.3977 32.3391C43.7637 35.7101 40.9466 38.2396 37.5215 38.5135C33.465 38.8378 29.5866 39 25.8863 39C22.6759 39 19.4344 38.8779 16.1619 38.6337L15.4062 38.5752C11.8854 38.2927 9.02137 35.6306 8.48853 32.1451C8.16284 30.0147 8 27.9447 8 25.9351C8 23.9606 8.1572 21.9882 8.47161 20.0179C9.00302 16.6878 11.6689 14.1053 15.0194 13.6747C18.5195 13.2249 22.1418 13 25.8863 13ZM25.8863 16.3049C22.2812 16.3049 18.7999 16.521 15.4422 16.9525C13.5484 17.1959 12.0416 18.6556 11.7412 20.5378C11.4542 22.3366 11.3108 24.1351 11.3108 25.9351C11.3108 27.7748 11.4606 29.6784 11.7615 31.6466C12.0574 33.5821 13.6251 35.0684 15.5583 35.2707L15.6623 35.2803L16.4087 35.3381C18.8142 35.5176 20.6598 35.6294 23.0294 35.6736C23.803 35.6879 25.0784 34.2239 26.5 34.2239C27.9216 34.2239 28.9977 35.683 30.0237 35.6588C32.7074 35.5953 34.3847 35.4488 37.2572 35.2192C39.1585 35.0671 40.7284 33.6853 41.1201 31.8484L41.1403 31.7477L41.2099 31.366C41.5296 29.553 41.6892 27.7434 41.6892 25.9351C41.6892 24.06 41.5176 22.2467 41.1756 20.4925C40.8278 18.7088 39.3949 17.3404 37.6131 17.0679L37.5119 17.0536L36.8892 16.9756C33.22 16.5284 29.5526 16.3049 25.8863 16.3049Z" fill="white"/>
<path id="&#231;&#159;&#169;&#229;&#189;&#162;&#229;&#164;&#135;&#228;&#187;&#189;-10" d="M19.8929 20.8989H18.2411C17.5113 20.8989 16.9197 21.4883 16.9197 22.2154V28.7977C16.9197 29.5247 17.5113 30.1141 18.2411 30.1141H19.8929C20.6227 30.1141 21.2143 29.5247 21.2143 28.7977V22.2154C21.2143 21.4883 20.6227 20.8989 19.8929 20.8989Z" fill="white" stroke="white"/>
<path id="&#231;&#159;&#169;&#229;&#189;&#162;&#229;&#164;&#135;&#228;&#187;&#189;-11" d="M34.759 21.8862H33.1072C32.3774 21.8862 31.7858 22.4756 31.7858 23.2027V27.1521C31.7858 27.8791 32.3774 28.4685 33.1072 28.4685H34.759C35.4888 28.4685 36.0804 27.8791 36.0804 27.1521V23.2027C36.0804 22.4756 35.4888 21.8862 34.759 21.8862Z" fill="white" stroke="white"/>
</g>
</g>
</g>
</g>
</g>
<defs>
<clipPath id="clip0_116_477">
<rect width="37" height="26" fill="white" transform="translate(8 13)"/>
</clipPath>
</defs>
</svg>
