<?xml version="1.0" standalone="no"?><!DOCTYPE svg PUBLIC "-//W3C//DTD SVG 1.1//EN" "http://www.w3.org/Graphics/SVG/1.1/DTD/svg11.dtd"><svg t="1678609017585" class="icon" viewBox="0 0 1024 1024" version="1.1" xmlns="http://www.w3.org/2000/svg" p-id="4160" xmlns:xlink="http://www.w3.org/1999/xlink" width="48" height="48"><path d="M510.571789 308.789895c-125.817263 0-214.069895 53.975579-214.069894 53.975579 48.343579-43.169684 132.850526-68.069053 132.850526-68.069053l-7.976421-7.976421c-79.333053 1.401263-151.174737 56.32-151.174737 56.32-80.734316 168.555789-75.587368 314.071579-75.587368 314.071579 65.751579 84.992 163.381895 78.874947 163.381894 78.874947l33.333895-42.253473c-58.691368-12.665263-95.770947-64.781474-95.770947-64.781474s88.252632 60.092632 215.013052 60.092632c126.760421 0 215.013053-60.092632 215.013053-60.092632s-37.079579 52.116211-95.770947 64.781474l33.333894 42.253473s97.657263 6.117053 163.381895-78.874947c0 0 5.146947-145.515789-75.587368-314.044632 0 0-71.841684-54.945684-151.174737-56.346947l-7.976421 7.976421s84.506947 24.899368 132.850526 68.069053c0 0-88.252632-53.975579-214.069895-53.975579m-97.17221 177.906526c30.504421 0 55.403789 26.758737 54.918737 59.634526 0 32.390737-24.414316 59.607579-54.918737 59.607579-30.046316 0-54.460632-27.216842-54.460632-59.607579 0-32.875789 23.929263-59.634526 54.433685-59.634526m195.772631 0c30.531368 0 54.945684 26.758737 54.945684 59.634526 0 32.390737-24.414316 59.607579-54.945684 59.607579-30.046316 0-54.433684-27.216842-54.433684-59.607579 0-32.875789 23.929263-59.634526 54.433684-59.634526z" p-id="4161"></path></svg>