<svg width="44" height="31" viewBox="0 0 44 31" fill="none" xmlns="http://www.w3.org/2000/svg">
<g id="&#231;&#188;&#150;&#231;&#187;&#132; 7 (2) 1" clip-path="url(#clip0_114_474)">
<g id="&#233;&#161;&#181;&#233;&#157;&#162;-1">
<g id="&#231;&#148;&#187;&#230;&#157;&#191;&#229;&#164;&#135;&#228;&#187;&#189;">
<g id="&#231;&#188;&#150;&#231;&#187;&#132;-7">
<path id="&#231;&#159;&#169;&#229;&#189;&#162;&#229;&#164;&#135;&#228;&#187;&#189;-9" d="M21.2702 0C25.79 0 30.3105 0.276255 34.8319 0.828765L35.5854 0.923408C39.4557 1.42262 42.5712 4.347 43.3167 8.18048C43.7722 10.5227 44 12.9368 44 15.4226C44 17.8085 43.7902 20.1947 43.3705 22.5809L43.2838 23.0582C42.5298 27.0774 39.1798 30.0934 35.1067 30.4199C30.2827 30.8066 25.6705 31 21.2702 31C17.4524 31 13.5977 30.8544 9.7061 30.5633L8.80739 30.4935C4.62047 30.1567 1.2146 26.9826 0.580959 22.8269C0.193653 20.2868 0 17.8187 0 15.4226C0 13.0684 0.186945 10.7167 0.560834 8.36753C1.19278 4.39701 4.36298 1.3178 8.34743 0.804431C12.5097 0.268144 16.8173 0 21.2702 0ZM21.2702 3.94041C16.983 3.94041 12.8432 4.19811 8.85016 4.71258C6.59808 5.00275 4.80623 6.74317 4.44904 8.98738C4.10769 11.132 3.93722 13.2765 3.93722 15.4226C3.93722 17.6161 4.11531 19.8857 4.47313 22.2325C4.82499 24.5402 6.68927 26.3123 8.98829 26.5535L9.11187 26.5649L9.99958 26.6339C12.8601 26.8479 15.0549 26.9812 17.8727 27.0339C18.7927 27.051 20.3094 25.3054 22 25.3054C23.6906 25.3054 24.9703 27.0451 26.1904 27.0162C29.3818 26.9406 31.3764 26.7659 34.7923 26.4921C37.0534 26.3108 38.9202 24.6632 39.3861 22.4731L39.4101 22.3531L39.4929 21.8979C39.873 19.7363 40.0628 17.5787 40.0628 15.4226C40.0628 13.1869 39.8588 11.0249 39.452 8.93332C39.0384 6.80669 37.3345 5.17505 35.2156 4.85014L35.0952 4.83315L34.3547 4.74012C29.9914 4.20692 25.6302 3.94041 21.2702 3.94041Z" fill="black"/>
<path id="&#231;&#159;&#169;&#229;&#189;&#162;&#229;&#164;&#135;&#228;&#187;&#189;-10" d="M14.1429 9.41748H12.1786C11.3107 9.41748 10.6072 10.1202 10.6072 10.9871V18.8352C10.6072 19.7021 11.3107 20.4048 12.1786 20.4048H14.1429C15.0108 20.4048 15.7143 19.7021 15.7143 18.8352V10.9871C15.7143 10.1202 15.0108 9.41748 14.1429 9.41748Z" fill="black" stroke="black"/>
<path id="&#231;&#159;&#169;&#229;&#189;&#162;&#229;&#164;&#135;&#228;&#187;&#189;-11" d="M31.8215 10.5947H29.8572C28.9893 10.5947 28.2858 11.2975 28.2858 12.1643V16.8732C28.2858 17.7401 28.9893 18.4428 29.8572 18.4428H31.8215C32.6894 18.4428 33.3929 17.7401 33.3929 16.8732V12.1643C33.3929 11.2975 32.6894 10.5947 31.8215 10.5947Z" fill="#2FC662" stroke="#2FC662"/>
</g>
</g>
</g>
</g>
<defs>
<clipPath id="clip0_114_474">
<rect width="44" height="31" fill="white"/>
</clipPath>
</defs>
</svg>
