<?xml version="1.0" standalone="no"?><!DOCTYPE svg PUBLIC "-//W3C//DTD SVG 1.1//EN" "http://www.w3.org/Graphics/SVG/1.1/DTD/svg11.dtd"><svg t="1678609578216" class="icon" viewBox="0 0 1024 1024" version="1.1" xmlns="http://www.w3.org/2000/svg" p-id="4785" xmlns:xlink="http://www.w3.org/1999/xlink" width="48" height="48"><path d="M136.106667 566.528l2.986666-4.693333 180.053334-281.642667a6.144 6.144 0 0 1 10.794666 0.768c30.08 67.413333 56.064 151.253333 43.904 203.434667-5.205333 21.504-19.413333 50.56-35.413333 77.44a141.738667 141.738667 0 0 1-6.784 11.477333 6.101333 6.101333 0 0 1-5.12 2.688h-185.173333a6.144 6.144 0 0 1-5.248-9.472z" fill="#000000" p-id="4786"></path><path d="M938.666667 618.88v44.586667a6.4 6.4 0 0 1-3.84 5.845333c-13.952 5.973333-61.653333 27.861333-81.493334 55.466667C802.688 795.221333 764.032 896 677.546667 896H316.8C188.928 896 85.333333 792.021333 85.333333 663.765333v-4.138666c0-3.413333 2.773333-6.186667 6.186667-6.186667h201.088c4.010667 0 6.912 3.712 6.570667 7.594667-1.450667 13.098667 0.981333 26.453333 7.168 38.613333 11.946667 24.277333 36.693333 39.424 63.445333 39.424H469.333333V661.333333H370.901333a6.357333 6.357333 0 0 1-5.12-9.941333c1.066667-1.664 2.304-3.370667 3.584-5.290667 9.301333-13.226667 22.613333-33.749333 35.84-57.173333 9.002667-15.786667 17.749333-32.64 24.789334-49.536 1.450667-3.072 2.56-6.186667 3.712-9.258667 1.92-5.418667 3.925333-10.453333 5.333333-15.488 1.408-4.266667 2.56-8.746667 3.712-12.970666 3.328-14.336 4.736-29.568 4.736-45.354667 0-6.186667-0.256-12.672-0.853333-18.858667a244.906667 244.906667 0 0 0-1.962667-20.266666 208.981333 208.981333 0 0 0-2.773333-18.048 304.64 304.64 0 0 0-5.717334-27.008l-0.768-3.413334c-1.706667-6.186667-3.114667-12.117333-5.12-18.304A690.261333 690.261333 0 0 0 411.392 294.4c-2.517333-7.04-5.333333-13.781333-8.192-20.565333-4.181333-10.154667-8.448-19.413333-12.373333-28.16a393.728 393.728 0 0 1-5.418667-11.306667 398.72 398.72 0 0 0-5.888-12.373333c-1.408-3.029333-3.072-5.888-4.181333-8.746667l-12.16-22.442667a3.968 3.968 0 0 1 4.48-5.76l76.074666 20.608h0.213334l0.298666 0.085334 10.026667 2.773333 11.008 3.114667 4.053333 1.152v-45.226667c0-21.845333 17.493333-39.552 39.125334-39.552 10.794667 0 20.608 4.394667 27.648 11.605333a39.765333 39.765333 0 0 1 11.434666 27.946667V234.666667l8.106667 2.261333c0.64 0.213333 1.28 0.512 1.877333 0.938667 1.962667 1.493333 4.821333 3.712 8.448 6.4 2.858667 2.261333 5.888 5.034667 9.6 7.893333 7.338667 5.888 16.085333 13.525333 25.685334 22.272 2.56 2.176 5.034667 4.48 7.296 6.741333 12.373333 11.52 26.24 25.045333 39.466666 39.978667 3.712 4.181333 7.338667 8.448 11.050667 12.928 3.669333 4.565333 7.594667 9.045333 11.008 13.525333 4.48 5.973333 9.301333 12.16 13.525333 18.602667 1.962667 3.072 4.266667 6.186667 6.186667 9.258667 5.376 8.192 10.154667 16.64 14.72 25.088 1.92 3.925333 3.882667 8.192 5.589333 12.373333 5.077333 11.306667 9.045333 22.826667 11.605334 34.346667 0.768 2.517333 1.365333 5.205333 1.621333 7.637333v0.554667c0.853333 3.413333 1.152 7.04 1.450667 10.752a114.901333 114.901333 0 0 1-6.186667 50.346666c-1.706667 4.821333-3.413333 9.856-5.632 14.634667-4.266667 9.898667-9.301333 19.754667-15.274667 29.013333-1.92 3.413333-4.224 7.04-6.485333 10.453334-2.474667 3.626667-5.034667 7.04-7.338667 10.368-3.114667 4.266667-6.442667 8.746667-9.856 12.757333a135.253333 135.253333 0 0 1-9.6 12.074667c-4.778667 5.632-9.344 10.965333-14.08 16.085333a146.773333 146.773333 0 0 1-9.045333 9.813333c-3.072 3.413333-6.186667 6.442667-9.045333 9.301334a360.192 360.192 0 0 1-12.074667 11.52l-7.808 7.168a6.4 6.4 0 0 1-4.224 1.578666h-60.586667v77.738667h76.245334c17.066667 0 33.28-6.058667 46.378666-17.152 4.48-3.925333 24.021333-20.821333 47.146667-46.378667a5.888 5.888 0 0 1 2.901333-1.749333l210.56-60.885333a6.229333 6.229333 0 0 1 7.893334 5.973333z" fill="#000000" p-id="4787"></path></svg>