<svg width="24" height="24" viewBox="0 0 24 24" fill="none" xmlns="http://www.w3.org/2000/svg">
<g id="inbox-upload">
<path id="inbox-upload_2" d="M21.75 13.616V18C21.75 20.418 20.418 21.75 18 21.75H6C3.582 21.75 2.25 20.418 2.25 18V13.616C2.25 13.107 2.35198 12.611 2.55298 12.14L4.53198 7.52297C5.03298 6.35397 5.506 5.24996 7.979 5.24996C8.393 5.24996 8.729 5.58596 8.729 5.99996C8.729 6.41396 8.393 6.74996 7.979 6.74996C6.495 6.74996 6.35989 7.06598 5.91089 8.11398L4.03101 12.5H6.95605C8.11605 12.5 9.19504 13.159 9.84204 14.263C10.288 15.026 11.115 15.5 12.001 15.5C12.887 15.5 13.7139 15.026 14.1599 14.263C14.8059 13.159 15.8859 12.5 17.0459 12.5H19.9719L18.0911 8.11398C17.6421 7.06598 17.5069 6.74996 16.0229 6.74996C15.6089 6.74996 15.2729 6.41396 15.2729 5.99996C15.2729 5.58596 15.6089 5.24996 16.0229 5.24996C18.4969 5.24996 18.969 6.35397 19.47 7.52297L21.449 12.139C21.648 12.61 21.75 13.107 21.75 13.616ZM10.53 4.52996L11.25 3.80996V9.99996C11.25 10.414 11.586 10.75 12 10.75C12.414 10.75 12.75 10.414 12.75 9.99996V3.81097L13.47 4.53097C13.616 4.67697 13.808 4.75097 14 4.75097C14.192 4.75097 14.384 4.67797 14.53 4.53097C14.823 4.23797 14.823 3.76296 14.53 3.46996L12.53 1.46996C12.461 1.40096 12.3779 1.34598 12.2859 1.30798C12.1029 1.23198 11.8959 1.23198 11.7129 1.30798C11.6209 1.34598 11.538 1.40096 11.469 1.46996L9.46899 3.46996C9.17599 3.76296 9.17599 4.23797 9.46899 4.53097C9.76299 4.82297 10.237 4.82296 10.53 4.52996Z" fill="#268D61"/>
</g>
</svg>
