<?xml version="1.0" standalone="no"?><!DOCTYPE svg PUBLIC "-//W3C//DTD SVG 1.1//EN" "http://www.w3.org/Graphics/SVG/1.1/DTD/svg11.dtd"><svg t="1678609049280" class="icon" viewBox="0 0 1024 1024" version="1.1" xmlns="http://www.w3.org/2000/svg" p-id="4309" xmlns:xlink="http://www.w3.org/1999/xlink" width="48" height="48"><path d="M741.21263187 397.05263188c-2.88 197.17894781-129.54947344 331.0231575-315.20842124 339.6631575-76.29473719 2.88-132.42947344-20.16-182.80421063-53.25473719 56.13473719 8.64 126.66947344-14.4 165.52421063-47.49473625-56.13473719-5.76-89.22947344-35.97473719-106.50947344-79.17473719 14.4 2.88 33.09473719 2.88 47.49473625 0-50.37473719-17.25473719-84.90947344-47.49473719-89.22947344-115.12421063 14.4 5.76 30.21473719 11.49473719 47.49473719 14.4-38.85473719-20.16-64.77473719-100.77473719-33.09473719-154.02947343 56.10947344 61.89473719 123.78947344 112.26947344 236.03368406 118.02947343-25.92-118.02947344 129.52421062-182.77894781 194.29894781-103.62947343a317.40631594 317.40631594 0 0 0 73.41473625-25.89473719 120.58105219 120.58105219 0 0 1-47.49473625 61.89473719c23.01473719-2.90526281 44.61473719-8.64 61.89473625-17.28-7.2 24.45473719-31.68 44.61473719-51.81473625 61.89473718z" p-id="4310"></path></svg>